<?xml version="1.0" encoding="UTF-8"?>
<svg width="128" height="128" viewBox="0 0 128 128" xmlns="http://www.w3.org/2000/svg">
  <defs>
    <linearGradient id="grad" x1="0%" y1="0%" x2="100%" y2="100%">
      <stop offset="0%" style="stop-color:#8B5CF6;stop-opacity:1" />
      <stop offset="100%" style="stop-color:#6D28D9;stop-opacity:1" />
    </linearGradient>
  </defs>
  <!-- Rounded rectangle background -->
  <rect width="128" height="128" rx="24" fill="url(#grad)"/>

  <!-- Puzzle piece 1 (top-left) -->
  <path d="M 24 24 L 52 24 L 52 32 C 52 32 48 40 44 40 C 40 40 36 32 36 32 L 36 52 L 24 52 Z"
        fill="white" opacity="0.95"/>

  <!-- Puzzle piece 2 (top-right) -->
  <path d="M 60 24 L 88 24 L 88 52 L 76 52 L 76 32 C 76 32 72 40 68 40 C 64 40 60 32 60 32 Z"
        fill="white" opacity="0.75"/>

  <!-- Puzzle piece 3 (bottom-left) -->
  <path d="M 24 60 L 36 60 L 36 76 C 36 76 44 76 44 80 C 44 84 36 84 36 84 L 36 104 L 24 104 Z"
        fill="white" opacity="0.75"/>

  <!-- Puzzle piece 4 (bottom-right) -->
  <path d="M 60 104 L 88 104 L 88 76 L 76 76 L 76 84 C 76 84 68 84 68 80 C 68 76 76 76 76 76 L 60 76 Z"
        fill="white" opacity="0.55"/>

  <!-- Connecting nub accent -->
  <circle cx="52" cy="40" r="4" fill="#8B5CF6" opacity="0.5"/>
  <circle cx="36" cy="76" r="4" fill="#8B5CF6" opacity="0.5"/>
</svg>
